<svg width="32" height="32" viewBox="0 0 32 32" fill="none" xmlns="http://www.w3.org/2000/svg">
<path opacity="0.2" d="M16.0005 16L5.61302 22H5.60052C4.551 20.1746 3.99973 18.1054 4.00196 15.9998C4.00419 13.8941 4.55985 11.8261 5.61325 10.0029C6.66664 8.17973 8.18076 6.66546 10.0038 5.61188C11.8269 4.55831 13.8949 4.00244 16.0005 4V16Z" fill="#336FEE"/>
<path d="M16 28C22.6274 28 28 22.6274 28 16C28 9.37258 22.6274 4 16 4C9.37258 4 4 9.37258 4 16C4 22.6274 9.37258 28 16 28Z" stroke="#336FEE" stroke-width="2" stroke-linecap="round" stroke-linejoin="round"/>
<path d="M16 16V4" stroke="#336FEE" stroke-width="2" stroke-linecap="round" stroke-linejoin="round"/>
<path d="M26.3883 10L5.61328 22" stroke="#336FEE" stroke-width="2" stroke-linecap="round" stroke-linejoin="round"/>
</svg>
