<svg width="80" height="80" viewBox="0 0 80 80" fill="none" xmlns="http://www.w3.org/2000/svg">
<path d="M40 7.5C33.5721 7.5 27.2886 9.40609 21.944 12.9772C16.5994 16.5484 12.4338 21.6242 9.97393 27.5628C7.51408 33.5014 6.87047 40.0361 8.12449 46.3404C9.37851 52.6448 12.4738 58.4358 17.019 62.981C21.5643 67.5262 27.3552 70.6215 33.6596 71.8755C39.964 73.1295 46.4986 72.4859 52.4372 70.0261C58.3758 67.5662 63.4516 63.4006 67.0228 58.056C70.5939 52.7114 72.5 46.4279 72.5 40C72.4835 31.3855 69.0541 23.1286 62.9627 17.0373C56.8714 10.9459 48.6145 7.51652 40 7.5ZM51.7813 48.2188C52.2507 48.6927 52.5141 49.3329 52.5141 50C52.5141 50.6671 52.2507 51.3073 51.7813 51.7812C51.3034 52.2433 50.6647 52.5016 50 52.5016C49.3353 52.5016 48.6966 52.2433 48.2188 51.7812L40 43.5312L31.7813 51.7812C31.3034 52.2433 30.6647 52.5016 30 52.5016C29.3353 52.5016 28.6966 52.2433 28.2188 51.7812C27.7493 51.3073 27.486 50.6671 27.486 50C27.486 49.3329 27.7493 48.6927 28.2188 48.2188L36.4688 40L28.2188 31.7812C27.8201 31.2955 27.6164 30.6789 27.6472 30.0512C27.678 29.4236 27.9412 28.8299 28.3855 28.3855C28.8299 27.9412 29.4236 27.678 30.0512 27.6472C30.6789 27.6164 31.2955 27.8201 31.7813 28.2188L40 36.4688L48.2188 28.2188C48.7045 27.8201 49.3212 27.6164 49.9488 27.6472C50.5764 27.678 51.1702 27.9412 51.6145 28.3855C52.0588 28.8299 52.322 29.4236 52.3528 30.0512C52.3837 30.6789 52.1799 31.2955 51.7813 31.7812L43.5313 40L51.7813 48.2188Z" fill="#F04C41"/>
</svg>
