<svg width="33" height="32" viewBox="0 0 33 32" fill="none" xmlns="http://www.w3.org/2000/svg">
<path d="M27.8492 15.1765C29.2136 15.1765 30.334 14.0704 30.334 12.7059V4C30.334 2.89543 29.4386 2 28.334 2H27.3928C26.2882 2 25.3928 2.89543 25.3928 4V4.47059H23.7457C22.7281 4.47059 21.7153 4.33119 20.7354 4.05624C20.7354 4.05624 13.1774 2.08817 13.1398 2.07939C12.3315 1.89025 11.4624 2.06094 10.7552 2.54754L3.91275 7.25483C3.82693 7.31385 3.56357 7.47735 3.56357 7.47735C2.79362 7.9573 2.33398 8.78577 2.33398 9.69336C2.33398 10.3997 2.61102 11.061 3.11403 11.5552C3.6009 12.0336 4.26533 12.3056 4.94304 12.3056C4.95791 12.3056 4.97274 12.3055 4.98762 12.3053C5.20969 12.3014 5.43402 12.2652 5.67356 12.1948L11.4022 10.5097C11.4987 11.711 12.3504 12.7144 13.5408 12.9952L14.9873 13.3648C14.1601 14.0748 13.6346 15.1267 13.6346 16.2997C13.6346 16.7863 13.7258 17.2518 13.8905 17.6811C13.4202 17.6102 12.9386 17.651 12.4901 17.8005L10.3088 18.5129L10.1821 18.5551C8.9646 18.961 8.27608 19.1901 7.27516 19.2657V18.8235C7.27516 17.719 6.37973 16.8235 5.27516 16.8235H4.33398C3.22941 16.8235 2.33398 17.719 2.33398 18.8235V28C2.33398 29.1046 3.22941 30 4.33398 30H5.27516C6.37973 30 7.27516 29.1046 7.27516 28V27.5294H8.92222C9.93988 27.5294 10.9527 27.6688 11.9326 27.9438L19.4146 29.8917C19.4525 29.9021 19.4906 29.9118 19.5281 29.9206C19.7441 29.9711 19.9643 29.9959 20.1846 29.9959C20.7891 29.9959 21.3944 29.8091 21.9127 29.4525L28.7552 24.7452C28.841 24.6861 29.1043 24.5227 29.1043 24.5227C29.8743 24.0427 30.334 23.2142 30.334 22.3066C30.334 21.6003 30.0569 20.939 29.5539 20.4448C29.0564 19.956 28.3719 19.6817 27.6804 19.6948C27.4583 19.6987 27.2339 19.7348 26.9944 19.8053L21.2658 21.4904C21.1923 20.575 20.6802 19.7748 19.914 19.3214C20.8012 18.612 21.3712 17.5214 21.3712 16.2997C21.3712 15.4597 21.1012 14.6821 20.6448 14.0471L22.3592 13.4871L22.486 13.4449C23.7034 13.039 24.392 12.8099 25.3929 12.7343C25.3929 14.0831 26.5004 15.1765 27.8492 15.1765ZM27.0399 4.47059C27.0399 4.01577 27.4086 3.64706 27.8634 3.64706C28.3182 3.64706 28.6869 4.01577 28.6869 4.47059V12.7059C28.6869 13.1607 28.3182 13.5294 27.8634 13.5294C27.4086 13.5294 27.0399 13.1607 27.0399 12.7059V4.47059ZM18.0828 14.1557C19.0272 14.4114 19.7242 15.2755 19.7242 16.2997C19.7242 17.5245 18.7278 18.5209 17.503 18.5209C17.3503 18.5209 17.2013 18.5054 17.0572 18.4759L16.8557 18.4244C15.9457 18.1467 15.2817 17.2994 15.2817 16.2997C15.2817 15.0748 16.2781 14.0784 17.503 14.0784C17.6835 14.0784 17.8588 14.1006 18.0269 14.1415L18.0828 14.1557ZM5.6281 27.5294C5.6281 27.9842 5.2594 28.3529 4.80457 28.3529C4.34975 28.3529 3.98104 27.9842 3.98104 27.5294V19.2941C3.98104 18.8393 4.34975 18.4706 4.80457 18.4706C5.2594 18.4706 5.6281 18.8393 5.6281 19.2941V27.5294ZM20.741 23.3615L27.4592 21.3854C27.5537 21.3576 27.6379 21.3428 27.7093 21.3416C27.7151 21.3415 27.7207 21.3414 27.7264 21.3414C27.9781 21.3414 28.2166 21.4399 28.3997 21.6197C28.585 21.8017 28.687 22.0457 28.687 22.3066C28.687 22.6419 28.5173 22.9478 28.233 23.125L28.1662 23.1665C28.0548 23.2356 27.9395 23.3071 27.8217 23.3882L20.9792 28.0955C20.6531 28.3198 20.261 28.4005 19.9028 28.3167C19.8847 28.3125 19.8668 28.3079 19.8488 28.3029L12.3701 26.3558C11.2477 26.0417 10.0877 25.8824 8.92222 25.8824H7.27516V20.9158C8.55778 20.8324 9.4182 20.5459 10.703 20.1176L13.0063 19.3646C13.2341 19.2886 13.4784 19.2738 13.714 19.3217L18.745 20.607C19.265 20.7277 19.6282 21.1849 19.6282 21.7188C19.6282 22.0727 19.4682 22.4006 19.1892 22.6184C18.9102 22.8362 18.5533 22.9119 18.21 22.826L14.8621 21.989C14.4209 21.8787 13.9738 22.147 13.8635 22.5883C13.7532 23.0295 14.0214 23.4766 14.4627 23.5869L17.8106 24.4239C18.0372 24.4805 18.266 24.5084 18.4931 24.5084C19.1065 24.5084 19.7055 24.3049 20.2029 23.9166C20.4102 23.7546 20.5903 23.5675 20.741 23.3615ZM21.965 11.8824L19.6617 12.6354C19.4337 12.7113 19.1894 12.7263 18.954 12.6783L18.4997 12.5623C18.4769 12.5562 18.454 12.5503 18.431 12.5447L13.9406 11.3973L13.923 11.3931C13.403 11.2723 13.0399 10.8152 13.0399 10.2813C13.0399 9.9274 13.1999 9.59947 13.4788 9.38168C13.7578 9.16383 14.1146 9.08812 14.458 9.17404L17.8059 10.011C18.2471 10.1213 18.6943 9.85304 18.8046 9.41179C18.9148 8.97056 18.6466 8.52347 18.2054 8.41316L14.8575 7.57617C14.0188 7.36656 13.1467 7.5513 12.4652 8.08347C12.2578 8.24543 12.0777 8.43253 11.9269 8.63853L5.20882 10.6146C5.11427 10.6424 5.03011 10.6572 4.95863 10.6584C4.69971 10.663 4.45556 10.5642 4.26835 10.3803C4.08305 10.1983 3.98104 9.95431 3.98104 9.69336C3.98104 9.35813 4.15075 9.05221 4.43503 8.87499C4.43503 8.87499 4.72848 8.69288 4.84635 8.61179L11.6888 3.90449C12.0148 3.68016 12.4071 3.59946 12.7652 3.68329C12.7833 3.68747 20.2979 5.64417 20.2979 5.64417C21.4203 5.95832 22.5803 6.11765 23.7457 6.11765H25.3928V11.0842C24.1102 11.1676 23.2498 11.4541 21.965 11.8824Z" fill="#333844"/>
</svg>
