<svg width="33" height="32" viewBox="0 0 33 32" fill="none" xmlns="http://www.w3.org/2000/svg">
<path d="M28.3665 18.6746C28.5738 17.7643 28.6745 16.8331 28.6665 15.8996C28.6165 9.28706 23.1415 3.93707 16.5415 3.99957C13.7219 4.0293 11.0028 5.05099 8.86135 6.88538C6.71987 8.71977 5.29276 11.2497 4.83041 14.0313C4.36806 16.8128 4.89999 19.6684 6.33289 22.0969C7.76579 24.5254 10.0081 26.3718 12.6665 27.3121C13.1187 27.475 13.6035 27.5264 14.0798 27.4619C14.5561 27.3974 15.0098 27.2189 15.4024 26.9417C15.795 26.6644 16.115 26.2965 16.335 25.8691C16.5551 25.4418 16.6688 24.9677 16.6665 24.4871V23.9996C16.6648 23.6051 16.7413 23.2143 16.8915 22.8496C17.0416 22.4848 17.2625 22.1535 17.5415 21.8746C17.8204 21.5957 18.1517 21.3747 18.5165 21.2246C18.8812 21.0744 19.272 20.9979 19.6665 20.9996H25.4415C26.1201 21 26.7789 20.7703 27.3101 20.348C27.8414 19.9258 28.2138 19.3358 28.3665 18.6746V18.6746Z" stroke="#333844" stroke-width="2" stroke-linecap="round" stroke-linejoin="round"/>
<path d="M16.666 11C17.4944 11 18.166 10.3284 18.166 9.5C18.166 8.67157 17.4944 8 16.666 8C15.8376 8 15.166 8.67157 15.166 9.5C15.166 10.3284 15.8376 11 16.666 11Z" fill="#333844"/>
<path d="M11.041 14.25C11.8694 14.25 12.541 13.5784 12.541 12.75C12.541 11.9216 11.8694 11.25 11.041 11.25C10.2126 11.25 9.54102 11.9216 9.54102 12.75C9.54102 13.5784 10.2126 14.25 11.041 14.25Z" fill="#333844"/>
<path d="M11.041 20.75C11.8694 20.75 12.541 20.0784 12.541 19.25C12.541 18.4216 11.8694 17.75 11.041 17.75C10.2126 17.75 9.54102 18.4216 9.54102 19.25C9.54102 20.0784 10.2126 20.75 11.041 20.75Z" fill="#333844"/>
<path d="M22.291 14.25C23.1194 14.25 23.791 13.5784 23.791 12.75C23.791 11.9216 23.1194 11.25 22.291 11.25C21.4626 11.25 20.791 11.9216 20.791 12.75C20.791 13.5784 21.4626 14.25 22.291 14.25Z" fill="#333844"/>
</svg>
