<svg width="172" height="20" viewBox="0 0 172 20" fill="none" xmlns="http://www.w3.org/2000/svg">
<path fill-rule="evenodd" clip-rule="evenodd" d="M8.21495 2.95241C8.67093 2.94959 10.0261 2.82332 10.6001 4.82745C10.9868 6.17745 11.6027 8.38881 12.4479 11.4615H12.7921C13.6986 8.22205 14.3212 6.01069 14.6601 4.82745C15.2401 2.80245 16.6901 2.95245 17.2701 2.95245L21.745 2.95245V17.3524H17.1841V8.86628H16.8782L14.3358 17.3524H10.9043L8.36183 8.85999H8.05599V17.3524H3.49512V2.95245L8.21495 2.95241ZM28.2943 2.95245V11.4449H28.6581L31.7508 4.46162C32.3511 3.07193 33.6307 2.95245 33.6307 2.95245H38.0442V17.3524H33.3881V8.85999H33.0243L29.9922 15.8433C29.3919 17.2267 28.0517 17.3524 28.0517 17.3524H23.6382V2.95245H28.2943ZM54.1379 9.79543C53.4884 11.6994 51.4488 13.0629 49.1906 13.0629H44.3078V17.3524H39.8801V9.79543H54.1379Z" fill="#0F754E"/>
<path fill-rule="evenodd" clip-rule="evenodd" d="M49.4038 2.95239H39.6475C39.8797 6.15832 42.5485 8.9028 45.3113 8.9028H54.4451C54.9722 6.2383 53.1577 2.95239 49.4038 2.95239Z" fill="url(#paint0_linear_10958_4262)"/>
<g clip-path="url(#clip0_10958_4262)">
<path d="M83.6738 2.13892H92.3262V17.8611H83.6738V2.13892Z" fill="#FF5F00"/>
<path d="M84.2232 10.0002C84.2232 6.8058 85.7064 3.97247 87.9863 2.13914C86.3107 0.805803 84.1957 0.000244141 81.8884 0.000244141C76.4223 0.000244141 72 4.47247 72 10.0002C72 15.528 76.4223 20.0002 81.8884 20.0002C84.1957 20.0002 86.3107 19.1947 87.9863 17.8614C85.7064 16.0558 84.2232 13.1947 84.2232 10.0002Z" fill="#EB001B"/>
<path d="M104 10C104 15.5278 99.5776 20 94.1115 20C91.8042 20 89.6892 19.1944 88.0137 17.8611C90.321 16.0278 91.7768 13.1944 91.7768 10C91.7768 6.80555 90.2935 3.97222 88.0137 2.13889C89.6892 0.805559 91.8042 0 94.1115 0C99.5776 0 104 4.5 104 10Z" fill="#F79E1B"/>
</g>
<g clip-path="url(#clip1_10958_4262)">
<path d="M142.534 17.7692H138.321L140.956 2.28076H145.168L142.534 17.7692Z" fill="#00579F"/>
<path d="M157.804 2.6594C156.973 2.34602 155.655 2 154.026 2C149.866 2 146.937 4.10895 146.919 7.12412C146.884 9.3487 149.016 10.5843 150.61 11.326C152.24 12.084 152.794 12.5787 152.794 13.2543C152.777 14.2919 151.477 14.7702 150.264 14.7702C148.583 14.7702 147.682 14.5236 146.312 13.9464L145.757 13.6989L145.168 17.1757C146.156 17.6036 147.976 17.9834 149.866 18C154.286 18 157.163 15.9237 157.197 12.7105C157.214 10.9474 156.089 9.59639 153.662 8.49242C152.188 7.78374 151.286 7.30589 151.286 6.58078C151.303 5.9216 152.049 5.24643 153.712 5.24643C155.082 5.21336 156.088 5.52631 156.85 5.83948L157.231 6.00394L157.804 2.6594Z" fill="#00579F"/>
<path d="M163.402 12.2822C163.749 11.3924 165.084 7.94865 165.084 7.94865C165.066 7.98172 165.43 7.04244 165.638 6.46582L165.932 7.80039C165.932 7.80039 166.73 11.5078 166.903 12.2822C166.245 12.2822 164.234 12.2822 163.402 12.2822ZM168.602 2.28076H165.343C164.339 2.28076 163.575 2.56064 163.142 3.56584L156.885 17.769H161.305C161.305 17.769 162.032 15.8573 162.189 15.4456C162.674 15.4456 166.973 15.4456 167.597 15.4456C167.718 15.9894 168.1 17.769 168.1 17.769H172L168.602 2.28076Z" fill="#00579F"/>
<path d="M134.802 2.28076L130.677 12.8424L130.226 10.7004C129.464 8.22875 127.072 5.5434 124.402 4.20816L128.181 17.7528H132.635L139.257 2.28076H134.802Z" fill="#00579F"/>
<path d="M126.847 2.28076H120.069L120 2.59371C125.287 3.87901 128.788 6.97718 130.227 10.701L128.753 3.58271C128.511 2.59349 127.765 2.31339 126.847 2.28076Z" fill="#FAA61A"/>
</g>
<defs>
<linearGradient id="paint0_linear_10958_4262" x1="1528.37" y1="377.259" x2="39.6475" y2="377.259" gradientUnits="userSpaceOnUse">
<stop stop-color="#1F5CD7"/>
<stop offset="1" stop-color="#02AEFF"/>
</linearGradient>
<clipPath id="clip0_10958_4262">
<rect width="32" height="20" fill="white" transform="translate(72)"/>
</clipPath>
<clipPath id="clip1_10958_4262">
<rect width="52" height="16" fill="white" transform="translate(120 2)"/>
</clipPath>
</defs>
</svg>
