<svg width="70" height="24" viewBox="0 0 70 24" fill="none" xmlns="http://www.w3.org/2000/svg">
<g clip-path="url(#clip0_10517_13827)">
<path d="M36.6156 14.2909V19.3547H33.7894V3.09668H39.0552C44.0525 3.09668 46.1765 4.9331 46.1765 8.60291C46.1765 12.3878 43.6897 14.2909 39.0552 14.2909H36.6156ZM36.6156 5.76949V11.6181H39.2706C41.8931 11.6181 43.2501 10.7363 43.2501 8.53018C43.2501 6.53315 42.0701 5.76646 39.3178 5.76646L36.6156 5.76949ZM47.8484 8.75105C48.6075 8.19819 49.9932 7.74187 51.9814 7.74187C55.3524 7.74187 57.0152 8.86513 57.0152 11.7786V19.1763H54.4757V17.158C53.9215 18.4567 52.5116 19.3548 50.665 19.3548C48.3334 19.3548 46.9507 18.0765 46.9507 15.8797C46.9507 13.3231 48.8666 12.6064 51.7043 12.6064H54.3131V12.115C54.3131 10.5237 53.5298 10.0293 51.9814 10.0293C49.8577 10.0293 48.6346 10.8367 47.8514 12.0243L47.8484 8.75105ZM54.3101 15.2186V14.3118H52.0266C50.4331 14.3118 49.6709 14.6043 49.6709 15.6105C49.6709 16.4618 50.3156 17 51.5175 17C53.3401 17 54.1956 15.9908 54.3101 15.2186ZM57.7894 7.74187H60.7995L63.9601 15.7072L66.5428 7.74187H69.4023L64.7909 20.5871C63.7735 23.3725 62.738 23.9999 61.2149 23.9999C60.4985 23.9999 59.7099 23.7908 59.3697 23.4907V20.9568C59.7408 21.3213 60.2361 21.5295 60.7544 21.5388C61.5822 21.5388 62.2052 20.9811 62.6447 19.4171L57.7894 7.74187ZM7.4668 8.92827V12.5087L12.2567 15.4838L23.7249 7.12435C23.3202 6.24262 22.8132 5.4106 22.2142 4.64511L12.2567 11.9033L7.4668 8.92827Z" fill="white"/>
<path d="M21.7254 11.7456C21.7254 11.8275 21.7254 11.9124 21.7254 11.9943C21.7286 14.0577 21.0407 16.0627 19.7713 17.6894C18.502 19.3161 16.7244 20.4709 14.7222 20.9694C12.7199 21.4679 10.6084 21.2814 8.72453 20.4397C6.84064 19.5981 5.29292 18.1497 4.3283 16.3257C3.36369 14.5017 3.03777 12.4072 3.40253 10.3763C3.7673 8.3455 4.80174 6.49532 6.3408 5.12101C7.87987 3.74671 9.83488 2.92746 11.8939 2.79399C13.953 2.66052 15.9974 3.22052 17.701 4.38463L20.0424 2.66658C17.9255 0.955816 15.2898 0.0155583 12.568 -5.61282e-05C9.84622 -0.015285 7.20005 0.895045 5.06382 2.58171C2.92759 4.26838 1.42821 6.63117 0.811798 9.28227C0.195382 11.9333 0.498546 14.7152 1.67153 17.1713C2.84451 19.6275 4.81762 21.6118 7.26701 22.7988C9.7164 23.9857 12.4965 24.3047 15.1511 23.7034C17.8057 23.1021 20.177 21.6162 21.8758 19.4896C23.5746 17.363 24.5 14.722 24.5 12.0002C24.4997 11.2788 24.4351 10.5589 24.3068 9.84901L21.7254 11.7456Z" fill="white"/>
</g>
<defs>
<clipPath id="clip0_10517_13827">
<rect width="69" height="24" fill="white" transform="translate(0.5)"/>
</clipPath>
</defs>
</svg>
