<svg width="56" height="56" viewBox="0 0 56 56" fill="none" xmlns="http://www.w3.org/2000/svg">
<circle cx="28" cy="28" r="28" fill="#F3F4F6"/>
<path d="M38.5 16.4502H17.5C16.9201 16.4502 16.45 16.9203 16.45 17.5002V38.5002C16.45 39.0801 16.9201 39.5502 17.5 39.5502H38.5C39.0799 39.5502 39.55 39.0801 39.55 38.5002V17.5002C39.55 16.9203 39.0799 16.4502 38.5 16.4502Z" stroke="#818798" stroke-width="2" stroke-linecap="round" stroke-linejoin="round"/>
<path d="M39.55 32.2001L33.9982 26.6482C33.9005 26.549 33.784 26.4702 33.6556 26.4164C33.5271 26.3627 33.3893 26.335 33.25 26.335C33.1108 26.335 32.973 26.3627 32.8445 26.4164C32.7161 26.4702 32.5996 26.549 32.5019 26.6482L26.6482 32.502C26.5505 32.6012 26.434 32.68 26.3056 32.7337C26.1771 32.7875 26.0393 32.8152 25.9 32.8152C25.7608 32.8152 25.623 32.7875 25.4945 32.7337C25.3661 32.68 25.2496 32.6012 25.1519 32.502L22.4482 29.7982C22.3505 29.699 22.234 29.6202 22.1056 29.5664C21.9771 29.5127 21.8393 29.485 21.7 29.485C21.5608 29.485 21.423 29.5127 21.2945 29.5664C21.1661 29.6202 21.0496 29.699 20.9519 29.7982L16.45 34.3001" stroke="#818798" stroke-width="2" stroke-linecap="round" stroke-linejoin="round"/>
<path d="M24.325 24.8502C25.1949 24.8502 25.9 24.145 25.9 23.2752C25.9 22.4053 25.1949 21.7002 24.325 21.7002C23.4552 21.7002 22.75 22.4053 22.75 23.2752C22.75 24.145 23.4552 24.8502 24.325 24.8502Z" fill="#818798"/>
</svg>
