<svg width="32" height="32" viewBox="0 0 32 32" fill="none" xmlns="http://www.w3.org/2000/svg">
<path d="M5 8.08838L8.43574 14.1543V17.8543L5.00402 23.9082L5 8.08838Z" fill="#5B57A2"/>
<path d="M18.1914 11.9468L21.4108 9.99777L27.9995 9.9917L18.1914 15.9266V11.9468Z" fill="#D90751"/>
<path d="M18.1736 8.05253L18.1918 16.0835L14.748 13.9935V1.98853L18.1739 8.05253H18.1736Z" fill="#FAB718"/>
<path d="M28 9.99174L21.411 9.99781L18.1736 8.05253L14.748 1.98853L27.9997 9.99174H28Z" fill="#ED6F26"/>
<path d="M18.1918 23.9416V20.0452L14.748 17.9949L14.7499 30.0117L18.1918 23.9416Z" fill="#63B22F"/>
<path d="M21.4032 22.0106L8.4355 14.1543L5 8.08838L27.986 22.0026L21.403 22.0106H21.4032Z" fill="#1487C9"/>
<path d="M14.75 30.0117L18.1914 23.9417L21.4028 22.0104L27.9856 22.0024L14.75 30.0117Z" fill="#017F36"/>
<path d="M5.00391 23.9081L14.7761 17.9952L11.4907 16.0042L8.43563 17.8542L5.00391 23.9081Z" fill="#984995"/>
</svg>
