<svg width="164" height="40" viewBox="0 0 164 40" fill="none" xmlns="http://www.w3.org/2000/svg">
<rect x="5.64648" y="24.6466" width="6.2697" height="18.8091" transform="rotate(-135 5.64648 24.6466)" fill="#336FEE"/>
<rect x="25.9121" y="33.5133" width="6.2697" height="18.8091" transform="rotate(-135 25.9121 33.5133)" fill="#336FEE"/>
<rect x="6.91211" y="25.9133" width="6.2697" height="18.8091" transform="rotate(-45 6.91211 25.9133)" fill="#336FEE"/>
<rect x="15.7793" y="5.64661" width="6.2697" height="18.8091" transform="rotate(-45 15.7793 5.64661)" fill="#336FEE"/>
<path d="M52 28.7734V12.7734H62.25V15.2031H54.8984V19.5469H61.5469V21.9766H54.8984V28.7734H52Z" fill="#333844"/>
<path d="M68.1113 29.0156C67.3509 29.0156 66.666 28.8802 66.0566 28.6094C65.4525 28.3333 64.9733 27.9271 64.6191 27.3906C64.2702 26.8542 64.0957 26.1927 64.0957 25.4062C64.0957 24.7292 64.2207 24.1693 64.4707 23.7266C64.7207 23.2839 65.0618 22.9297 65.4941 22.6641C65.9264 22.3984 66.4134 22.1979 66.9551 22.0625C67.502 21.9219 68.0671 21.8203 68.6504 21.7578C69.3535 21.6849 69.9238 21.6198 70.3613 21.5625C70.7988 21.5 71.1165 21.4062 71.3145 21.2812C71.5176 21.151 71.6191 20.9505 71.6191 20.6797V20.6328C71.6191 20.0443 71.4447 19.5885 71.0957 19.2656C70.7467 18.9427 70.2441 18.7813 69.5879 18.7813C68.8952 18.7813 68.3457 18.9323 67.9395 19.2344C67.5384 19.5365 67.2676 19.8932 67.127 20.3047L64.4863 19.9297C64.6947 19.2005 65.0384 18.5911 65.5176 18.1016C65.9967 17.6068 66.5827 17.237 67.2754 16.9922C67.9681 16.7422 68.7337 16.6172 69.5723 16.6172C70.1504 16.6172 70.7259 16.6849 71.2988 16.8203C71.8717 16.9557 72.3952 17.1797 72.8691 17.4922C73.3431 17.7995 73.7233 18.2188 74.0098 18.75C74.3014 19.2812 74.4473 19.9453 74.4473 20.7422V28.7734H71.7285V27.125H71.6348C71.4629 27.4583 71.2207 27.7708 70.9082 28.0625C70.6009 28.349 70.2129 28.5807 69.7441 28.7578C69.2806 28.9297 68.7363 29.0156 68.1113 29.0156ZM68.8457 26.9375C69.4134 26.9375 69.9056 26.8255 70.3223 26.6016C70.7389 26.3724 71.0592 26.0703 71.2832 25.6953C71.5124 25.3203 71.627 24.9115 71.627 24.4688V23.0547C71.5384 23.1276 71.3874 23.1953 71.1738 23.2578C70.9655 23.3203 70.7311 23.375 70.4707 23.4219C70.2103 23.4688 69.9525 23.5104 69.6973 23.5469C69.4421 23.5833 69.2207 23.6146 69.0332 23.6406C68.6113 23.6979 68.2337 23.7917 67.9004 23.9219C67.5671 24.0521 67.304 24.2344 67.1113 24.4688C66.9186 24.6979 66.8223 24.9948 66.8223 25.3594C66.8223 25.8802 67.0124 26.2734 67.3926 26.5391C67.7728 26.8047 68.2572 26.9375 68.8457 26.9375Z" fill="#333844"/>
<path d="M77.291 28.7734V16.7734H79.9941V18.8125H80.1348C80.3848 18.125 80.7988 17.5885 81.377 17.2031C81.9551 16.8125 82.6452 16.6172 83.4473 16.6172C84.2598 16.6172 84.9447 16.8151 85.502 17.2109C86.0645 17.6016 86.4603 18.1354 86.6895 18.8125H86.8145C87.0801 18.1458 87.528 17.6146 88.1582 17.2188C88.7936 16.8177 89.5462 16.6172 90.416 16.6172C91.5202 16.6172 92.4212 16.9661 93.1191 17.6641C93.8171 18.362 94.166 19.3802 94.166 20.7188V28.7734H91.3301V21.1562C91.3301 20.4115 91.1322 19.8672 90.7363 19.5234C90.3405 19.1745 89.8561 19 89.2832 19C88.6009 19 88.0671 19.2135 87.6816 19.6406C87.3014 20.0625 87.1113 20.612 87.1113 21.2891V28.7734H84.3379V21.0391C84.3379 20.4193 84.1504 19.9245 83.7754 19.5547C83.4056 19.1849 82.9212 19 82.3223 19C81.916 19 81.5462 19.1042 81.2129 19.3125C80.8796 19.5156 80.6139 19.8047 80.416 20.1797C80.2181 20.5495 80.1191 20.9818 80.1191 21.4766V28.7734H77.291Z" fill="#333844"/>
<path d="M97.0352 28.7734V16.7734H99.8633V28.7734H97.0352ZM98.457 15.0703C98.0091 15.0703 97.6237 14.9219 97.3008 14.625C96.9779 14.3229 96.8164 13.9609 96.8164 13.5391C96.8164 13.112 96.9779 12.75 97.3008 12.4531C97.6237 12.151 98.0091 12 98.457 12C98.9102 12 99.2956 12.151 99.6133 12.4531C99.9362 12.75 100.098 13.112 100.098 13.5391C100.098 13.9609 99.9362 14.3229 99.6133 14.625C99.2956 14.9219 98.9102 15.0703 98.457 15.0703Z" fill="#333844"/>
<path d="M105.6 12.7734V28.7734H102.771V12.7734H105.6Z" fill="#333844"/>
<path d="M110.266 33.2734C109.88 33.2734 109.523 33.2422 109.195 33.1797C108.872 33.1224 108.615 33.0547 108.422 32.9766L109.078 30.7734C109.49 30.8932 109.857 30.9505 110.18 30.9453C110.503 30.9401 110.786 30.8385 111.031 30.6406C111.281 30.4479 111.492 30.125 111.664 29.6719L111.906 29.0234L107.555 16.7734H110.555L113.32 25.8359H113.445L116.219 16.7734H119.227L114.422 30.2266C114.198 30.862 113.901 31.4062 113.531 31.8594C113.161 32.3177 112.708 32.6667 112.172 32.9062C111.641 33.151 111.005 33.2734 110.266 33.2734Z" fill="#333844"/>
<path d="M126.766 28.7734V12.7734H132.766C133.995 12.7734 135.026 13.0026 135.859 13.4609C136.698 13.9193 137.331 14.5495 137.758 15.3516C138.19 16.1484 138.406 17.0547 138.406 18.0703C138.406 19.0964 138.19 20.0078 137.758 20.8047C137.326 21.6016 136.688 22.2292 135.844 22.6875C135 23.1406 133.961 23.3672 132.727 23.3672H129.664V20.9844H132.336C133.055 20.9844 133.643 20.8594 134.102 20.6094C134.56 20.3594 134.898 20.0156 135.117 19.5781C135.341 19.1406 135.453 18.638 135.453 18.0703C135.453 17.5026 135.341 17.0026 135.117 16.5703C134.898 16.138 134.557 15.8021 134.094 15.5625C133.635 15.3177 133.044 15.1953 132.32 15.1953H129.664V28.7734H126.766Z" fill="#336FEE"/>
<path d="M144.037 29.0156C143.277 29.0156 142.592 28.8802 141.982 28.6094C141.378 28.3333 140.899 27.9271 140.545 27.3906C140.196 26.8542 140.021 26.1927 140.021 25.4062C140.021 24.7292 140.146 24.1693 140.396 23.7266C140.646 23.2839 140.988 22.9297 141.42 22.6641C141.852 22.3984 142.339 22.1979 142.881 22.0625C143.428 21.9219 143.993 21.8203 144.576 21.7578C145.279 21.6849 145.85 21.6198 146.287 21.5625C146.725 21.5 147.042 21.4062 147.24 21.2812C147.443 21.151 147.545 20.9505 147.545 20.6797V20.6328C147.545 20.0443 147.37 19.5885 147.021 19.2656C146.673 18.9427 146.17 18.7813 145.514 18.7813C144.821 18.7813 144.271 18.9323 143.865 19.2344C143.464 19.5365 143.193 19.8932 143.053 20.3047L140.412 19.9297C140.62 19.2005 140.964 18.5911 141.443 18.1016C141.923 17.6068 142.508 17.237 143.201 16.9922C143.894 16.7422 144.66 16.6172 145.498 16.6172C146.076 16.6172 146.652 16.6849 147.225 16.8203C147.798 16.9557 148.321 17.1797 148.795 17.4922C149.269 17.7995 149.649 18.2188 149.936 18.75C150.227 19.2812 150.373 19.9453 150.373 20.7422V28.7734H147.654V27.125H147.561C147.389 27.4583 147.146 27.7708 146.834 28.0625C146.527 28.349 146.139 28.5807 145.67 28.7578C145.206 28.9297 144.662 29.0156 144.037 29.0156ZM144.771 26.9375C145.339 26.9375 145.831 26.8255 146.248 26.6016C146.665 26.3724 146.985 26.0703 147.209 25.6953C147.438 25.3203 147.553 24.9115 147.553 24.4688V23.0547C147.464 23.1276 147.313 23.1953 147.1 23.2578C146.891 23.3203 146.657 23.375 146.396 23.4219C146.136 23.4688 145.878 23.5104 145.623 23.5469C145.368 23.5833 145.146 23.6146 144.959 23.6406C144.537 23.6979 144.16 23.7917 143.826 23.9219C143.493 24.0521 143.23 24.2344 143.037 24.4688C142.844 24.6979 142.748 24.9948 142.748 25.3594C142.748 25.8802 142.938 26.2734 143.318 26.5391C143.699 26.8047 144.183 26.9375 144.771 26.9375Z" fill="#336FEE"/>
<path d="M154.545 33.2734C154.16 33.2734 153.803 33.2422 153.475 33.1797C153.152 33.1224 152.894 33.0547 152.701 32.9766L153.357 30.7734C153.769 30.8932 154.136 30.9505 154.459 30.9453C154.782 30.9401 155.066 30.8385 155.311 30.6406C155.561 30.4479 155.771 30.125 155.943 29.6719L156.186 29.0234L151.834 16.7734H154.834L157.6 25.8359H157.725L160.498 16.7734H163.506L158.701 30.2266C158.477 30.862 158.18 31.4062 157.811 31.8594C157.441 32.3177 156.988 32.6667 156.451 32.9062C155.92 33.151 155.285 33.2734 154.545 33.2734Z" fill="#336FEE"/>
</svg>
